<svg width="1466" height="389" viewBox="0 0 1466 389" fill="none" xmlns="http://www.w3.org/2000/svg">
<mask id="path-1-outside-1_2112_3" maskUnits="userSpaceOnUse" x="-0.193359" y="-0.25" width="1466" height="390" fill="black">
<rect fill="white" x="-0.193359" y="-0.25" width="1466" height="390"/>
<path d="M54.4446 212.235V288.585C54.4446 303.855 60.892 317.428 73.7866 329.305C87.0206 341.182 102.63 347.12 120.615 347.12C141.314 347.12 157.432 339.146 168.97 323.197C180.846 307.248 186.785 282.986 186.785 250.41C186.785 185.937 164.728 153.7 120.615 153.7C102.63 153.7 87.0206 159.638 73.7866 171.515C60.892 183.392 54.4446 196.965 54.4446 212.235ZM43.7556 375.624C38.6656 380.375 32.7273 382.75 25.9406 382.75C19.154 382.75 13.2156 380.375 8.12564 375.624C3.37498 370.534 0.999644 364.596 0.999644 357.809V27.468C0.999644 20.0027 3.54464 13.725 8.63464 8.63499C14.064 3.54498 20.5113 0.99997 27.9766 0.99997C35.442 0.99997 41.7196 3.54498 46.8096 8.63499C51.8996 13.725 54.4446 20.0027 54.4446 27.468V145.556C54.4446 145.895 54.6143 146.065 54.9536 146.065C55.293 146.065 55.6323 145.895 55.9716 145.556C77.3496 123.839 103.139 112.98 133.34 112.98C165.576 112.98 191.366 125.026 210.708 149.119C230.389 173.212 240.23 206.975 240.23 250.41C240.23 292.487 230.05 325.912 209.69 350.683C189.669 375.454 164.219 387.84 133.34 387.84C117.052 387.84 102.8 385.125 90.5837 379.696C78.3676 373.927 65.982 364.087 53.4266 350.174C53.0873 349.835 52.748 349.665 52.4086 349.665C52.0693 349.665 51.8996 349.835 51.8996 350.174V357.809C51.5603 364.596 48.8456 370.534 43.7556 375.624ZM290.044 374.606C284.615 380.035 277.998 382.75 270.193 382.75C262.388 382.75 255.771 380.035 250.342 374.606C244.913 369.177 242.198 362.56 242.198 354.755V144.538C242.198 137.073 244.743 130.795 249.833 125.705C254.923 120.615 261.201 118.07 268.666 118.07C276.131 118.07 282.409 120.615 287.499 125.705C292.928 130.795 295.643 137.073 295.643 144.538V168.461C295.643 168.8 295.813 168.97 296.152 168.97C296.831 168.97 297.17 168.8 297.17 168.461C307.35 154.548 320.923 143.181 337.89 134.358C354.857 125.196 373.35 119.936 393.371 118.579C399.479 118.24 404.569 120.106 408.641 124.178C413.052 128.25 415.258 133.34 415.258 139.448C415.258 145.556 413.052 150.816 408.641 155.227C404.569 159.299 399.479 161.505 393.371 161.844C360.795 163.201 336.702 171.685 321.093 187.294C305.823 202.564 298.188 225.299 298.188 255.5V354.755C298.188 362.56 295.473 369.177 290.044 374.606ZM514.175 152.682C475.491 152.682 453.774 175.587 449.023 221.397C448.344 224.451 449.702 225.978 453.095 225.978H567.111C569.826 225.978 571.183 224.451 571.183 221.397C569.147 175.587 550.144 152.682 514.175 152.682ZM526.9 387.84C484.483 387.84 451.738 376.303 428.663 353.228C405.928 330.153 394.56 295.881 394.56 250.41C394.56 204.939 404.74 170.667 425.1 147.592C445.799 124.517 475.491 112.98 514.175 112.98C584.756 112.98 621.235 154.379 623.61 237.176C623.949 245.32 621.065 252.107 614.957 257.536C608.849 262.965 601.723 265.68 593.579 265.68H452.586C449.871 265.68 448.514 267.037 448.514 269.752C452.586 322.009 480.411 348.138 531.99 348.138C549.975 348.138 567.62 345.254 584.926 339.485C590.016 337.788 594.767 338.467 599.178 341.521C603.589 344.575 605.795 348.817 605.795 354.246C605.795 360.693 603.759 366.462 599.687 371.552C595.615 376.642 590.355 380.035 583.908 381.732C565.245 385.804 546.242 387.84 526.9 387.84ZM663.073 354.755L608.61 146.065C606.914 138.939 608.271 132.492 612.682 126.723C617.433 120.954 623.371 118.07 630.497 118.07C638.981 118.07 646.446 120.785 652.893 126.214C659.341 131.643 663.413 138.43 665.109 146.574L703.793 336.431C703.793 336.77 703.963 336.94 704.302 336.94C704.642 336.94 704.811 336.77 704.811 336.431L741.968 146.574C743.665 138.43 747.737 131.643 754.184 126.214C760.971 120.785 768.436 118.07 776.58 118.07H789.814C798.298 118.07 805.763 120.785 812.21 126.214C818.997 131.643 823.069 138.43 824.426 146.574L861.583 336.431C861.583 336.77 861.753 336.94 862.092 336.94C862.432 336.94 862.601 336.77 862.601 336.431L901.285 145.556C902.982 137.751 906.884 131.304 912.992 126.214C919.44 120.785 926.735 118.07 934.879 118.07C942.005 118.07 947.774 120.954 952.185 126.723C956.597 132.152 957.784 138.26 955.748 145.047L901.285 354.755C899.249 362.899 894.838 369.686 888.051 375.115C881.265 380.205 873.63 382.75 865.146 382.75H854.457C846.313 382.75 838.848 380.035 832.061 374.606C825.614 369.177 821.542 362.39 819.845 354.246L782.688 169.479C782.688 169.14 782.519 168.97 782.179 168.97C781.84 168.97 781.67 169.14 781.67 169.479L744.513 354.246C743.156 362.39 739.084 369.177 732.297 374.606C725.85 380.035 718.385 382.75 709.901 382.75H699.212C691.068 382.75 683.433 380.205 676.307 375.115C669.521 369.686 665.109 362.899 663.073 354.755ZM1060.5 387.84C1019.78 387.84 988.387 376.303 966.33 353.228C944.273 329.814 933.245 295.541 933.245 250.41C933.245 205.957 943.934 172.024 965.312 148.61C986.69 124.857 1016.72 112.98 1055.41 112.98C1073.39 112.98 1090.53 114.168 1106.81 116.543C1113.26 117.561 1118.52 120.615 1122.59 125.705C1127 130.795 1129.21 136.733 1129.21 143.52C1129.21 149.289 1126.83 153.87 1122.08 157.263C1117.67 160.656 1112.58 161.674 1106.81 160.317C1090.19 156.584 1074.41 154.718 1059.48 154.718C1036.06 154.718 1018.42 162.353 1006.54 177.623C995.004 192.893 989.235 217.155 989.235 250.41C989.235 284.343 995.343 308.775 1007.56 323.706C1020.11 338.637 1039.12 346.102 1064.57 346.102C1080.52 346.102 1095.79 343.896 1110.38 339.485C1115.81 337.788 1120.73 338.637 1125.14 342.03C1129.55 345.084 1131.76 349.326 1131.76 354.755C1131.76 361.542 1129.55 367.65 1125.14 373.079C1120.73 378.508 1115.3 381.902 1108.85 383.259C1092.56 386.313 1076.44 387.84 1060.5 387.84ZM1194.43 375.115C1189.34 380.205 1183.07 382.75 1175.6 382.75C1168.14 382.75 1161.86 380.205 1156.77 375.115C1151.68 370.025 1149.13 363.747 1149.13 356.282V27.468C1149.13 20.0027 1151.68 13.725 1156.77 8.63499C1161.86 3.54498 1168.14 0.99997 1175.6 0.99997C1183.07 0.99997 1189.34 3.54498 1194.43 8.63499C1199.86 13.725 1202.58 20.0027 1202.58 27.468V150.646C1202.58 150.985 1202.75 151.155 1203.09 151.155C1203.43 151.155 1203.77 150.985 1204.1 150.646C1227.86 125.535 1254.5 112.98 1284.02 112.98C1314.9 112.98 1337.46 121.633 1351.71 138.939C1365.97 155.906 1373.09 184.579 1373.09 224.96V356.791C1373.09 363.917 1370.55 370.025 1365.46 375.115C1360.37 380.205 1354.26 382.75 1347.13 382.75C1340.01 382.75 1333.9 380.205 1328.81 375.115C1323.72 370.025 1321.17 363.917 1321.17 356.791V235.14C1321.17 203.582 1317.44 182.543 1309.98 172.024C1302.51 161.505 1288.77 156.245 1268.75 156.245C1253.14 156.245 1238.21 163.71 1223.96 178.641C1209.7 193.232 1202.58 208.672 1202.58 224.96V356.282C1202.58 363.747 1199.86 370.025 1194.43 375.115ZM1427.04 382.75C1419.23 382.75 1412.45 379.866 1406.68 374.097C1400.91 368.328 1398.03 361.542 1398.03 353.737V335.413C1398.03 327.608 1400.91 320.822 1406.68 315.053C1412.45 309.284 1419.23 306.4 1427.04 306.4H1435.18C1442.99 306.4 1449.77 309.284 1455.54 315.053C1461.31 320.822 1464.2 327.608 1464.2 335.413V353.737C1464.2 361.542 1461.31 368.328 1455.54 374.097C1449.77 379.866 1442.99 382.75 1435.18 382.75H1427.04Z"/>
</mask>
<path d="M54.4446 212.235V288.585C54.4446 303.855 60.892 317.428 73.7866 329.305C87.0206 341.182 102.63 347.12 120.615 347.12C141.314 347.12 157.432 339.146 168.97 323.197C180.846 307.248 186.785 282.986 186.785 250.41C186.785 185.937 164.728 153.7 120.615 153.7C102.63 153.7 87.0206 159.638 73.7866 171.515C60.892 183.392 54.4446 196.965 54.4446 212.235ZM43.7556 375.624C38.6656 380.375 32.7273 382.75 25.9406 382.75C19.154 382.75 13.2156 380.375 8.12564 375.624C3.37498 370.534 0.999644 364.596 0.999644 357.809V27.468C0.999644 20.0027 3.54464 13.725 8.63464 8.63499C14.064 3.54498 20.5113 0.99997 27.9766 0.99997C35.442 0.99997 41.7196 3.54498 46.8096 8.63499C51.8996 13.725 54.4446 20.0027 54.4446 27.468V145.556C54.4446 145.895 54.6143 146.065 54.9536 146.065C55.293 146.065 55.6323 145.895 55.9716 145.556C77.3496 123.839 103.139 112.98 133.34 112.98C165.576 112.98 191.366 125.026 210.708 149.119C230.389 173.212 240.23 206.975 240.23 250.41C240.23 292.487 230.05 325.912 209.69 350.683C189.669 375.454 164.219 387.84 133.34 387.84C117.052 387.84 102.8 385.125 90.5837 379.696C78.3676 373.927 65.982 364.087 53.4266 350.174C53.0873 349.835 52.748 349.665 52.4086 349.665C52.0693 349.665 51.8996 349.835 51.8996 350.174V357.809C51.5603 364.596 48.8456 370.534 43.7556 375.624ZM290.044 374.606C284.615 380.035 277.998 382.75 270.193 382.75C262.388 382.75 255.771 380.035 250.342 374.606C244.913 369.177 242.198 362.56 242.198 354.755V144.538C242.198 137.073 244.743 130.795 249.833 125.705C254.923 120.615 261.201 118.07 268.666 118.07C276.131 118.07 282.409 120.615 287.499 125.705C292.928 130.795 295.643 137.073 295.643 144.538V168.461C295.643 168.8 295.813 168.97 296.152 168.97C296.831 168.97 297.17 168.8 297.17 168.461C307.35 154.548 320.923 143.181 337.89 134.358C354.857 125.196 373.35 119.936 393.371 118.579C399.479 118.24 404.569 120.106 408.641 124.178C413.052 128.25 415.258 133.34 415.258 139.448C415.258 145.556 413.052 150.816 408.641 155.227C404.569 159.299 399.479 161.505 393.371 161.844C360.795 163.201 336.702 171.685 321.093 187.294C305.823 202.564 298.188 225.299 298.188 255.5V354.755C298.188 362.56 295.473 369.177 290.044 374.606ZM514.175 152.682C475.491 152.682 453.774 175.587 449.023 221.397C448.344 224.451 449.702 225.978 453.095 225.978H567.111C569.826 225.978 571.183 224.451 571.183 221.397C569.147 175.587 550.144 152.682 514.175 152.682ZM526.9 387.84C484.483 387.84 451.738 376.303 428.663 353.228C405.928 330.153 394.56 295.881 394.56 250.41C394.56 204.939 404.74 170.667 425.1 147.592C445.799 124.517 475.491 112.98 514.175 112.98C584.756 112.98 621.235 154.379 623.61 237.176C623.949 245.32 621.065 252.107 614.957 257.536C608.849 262.965 601.723 265.68 593.579 265.68H452.586C449.871 265.68 448.514 267.037 448.514 269.752C452.586 322.009 480.411 348.138 531.99 348.138C549.975 348.138 567.62 345.254 584.926 339.485C590.016 337.788 594.767 338.467 599.178 341.521C603.589 344.575 605.795 348.817 605.795 354.246C605.795 360.693 603.759 366.462 599.687 371.552C595.615 376.642 590.355 380.035 583.908 381.732C565.245 385.804 546.242 387.84 526.9 387.84ZM663.073 354.755L608.61 146.065C606.914 138.939 608.271 132.492 612.682 126.723C617.433 120.954 623.371 118.07 630.497 118.07C638.981 118.07 646.446 120.785 652.893 126.214C659.341 131.643 663.413 138.43 665.109 146.574L703.793 336.431C703.793 336.77 703.963 336.94 704.302 336.94C704.642 336.94 704.811 336.77 704.811 336.431L741.968 146.574C743.665 138.43 747.737 131.643 754.184 126.214C760.971 120.785 768.436 118.07 776.58 118.07H789.814C798.298 118.07 805.763 120.785 812.21 126.214C818.997 131.643 823.069 138.43 824.426 146.574L861.583 336.431C861.583 336.77 861.753 336.94 862.092 336.94C862.432 336.94 862.601 336.77 862.601 336.431L901.285 145.556C902.982 137.751 906.884 131.304 912.992 126.214C919.44 120.785 926.735 118.07 934.879 118.07C942.005 118.07 947.774 120.954 952.185 126.723C956.597 132.152 957.784 138.26 955.748 145.047L901.285 354.755C899.249 362.899 894.838 369.686 888.051 375.115C881.265 380.205 873.63 382.75 865.146 382.75H854.457C846.313 382.75 838.848 380.035 832.061 374.606C825.614 369.177 821.542 362.39 819.845 354.246L782.688 169.479C782.688 169.14 782.519 168.97 782.179 168.97C781.84 168.97 781.67 169.14 781.67 169.479L744.513 354.246C743.156 362.39 739.084 369.177 732.297 374.606C725.85 380.035 718.385 382.75 709.901 382.75H699.212C691.068 382.75 683.433 380.205 676.307 375.115C669.521 369.686 665.109 362.899 663.073 354.755ZM1060.5 387.84C1019.78 387.84 988.387 376.303 966.33 353.228C944.273 329.814 933.245 295.541 933.245 250.41C933.245 205.957 943.934 172.024 965.312 148.61C986.69 124.857 1016.72 112.98 1055.41 112.98C1073.39 112.98 1090.53 114.168 1106.81 116.543C1113.26 117.561 1118.52 120.615 1122.59 125.705C1127 130.795 1129.21 136.733 1129.21 143.52C1129.21 149.289 1126.83 153.87 1122.08 157.263C1117.67 160.656 1112.58 161.674 1106.81 160.317C1090.19 156.584 1074.41 154.718 1059.48 154.718C1036.06 154.718 1018.42 162.353 1006.54 177.623C995.004 192.893 989.235 217.155 989.235 250.41C989.235 284.343 995.343 308.775 1007.56 323.706C1020.11 338.637 1039.12 346.102 1064.57 346.102C1080.52 346.102 1095.79 343.896 1110.38 339.485C1115.81 337.788 1120.73 338.637 1125.14 342.03C1129.55 345.084 1131.76 349.326 1131.76 354.755C1131.76 361.542 1129.55 367.65 1125.14 373.079C1120.73 378.508 1115.3 381.902 1108.85 383.259C1092.56 386.313 1076.44 387.84 1060.5 387.84ZM1194.43 375.115C1189.34 380.205 1183.07 382.75 1175.6 382.75C1168.14 382.75 1161.86 380.205 1156.77 375.115C1151.68 370.025 1149.13 363.747 1149.13 356.282V27.468C1149.13 20.0027 1151.68 13.725 1156.77 8.63499C1161.86 3.54498 1168.14 0.99997 1175.6 0.99997C1183.07 0.99997 1189.34 3.54498 1194.43 8.63499C1199.86 13.725 1202.58 20.0027 1202.58 27.468V150.646C1202.58 150.985 1202.75 151.155 1203.09 151.155C1203.43 151.155 1203.77 150.985 1204.1 150.646C1227.86 125.535 1254.5 112.98 1284.02 112.98C1314.9 112.98 1337.46 121.633 1351.71 138.939C1365.97 155.906 1373.09 184.579 1373.09 224.96V356.791C1373.09 363.917 1370.55 370.025 1365.46 375.115C1360.37 380.205 1354.26 382.75 1347.13 382.75C1340.01 382.75 1333.9 380.205 1328.81 375.115C1323.72 370.025 1321.17 363.917 1321.17 356.791V235.14C1321.17 203.582 1317.44 182.543 1309.98 172.024C1302.51 161.505 1288.77 156.245 1268.75 156.245C1253.14 156.245 1238.21 163.71 1223.96 178.641C1209.7 193.232 1202.58 208.672 1202.58 224.96V356.282C1202.58 363.747 1199.86 370.025 1194.43 375.115ZM1427.04 382.75C1419.23 382.75 1412.45 379.866 1406.68 374.097C1400.91 368.328 1398.03 361.542 1398.03 353.737V335.413C1398.03 327.608 1400.91 320.822 1406.68 315.053C1412.45 309.284 1419.23 306.4 1427.04 306.4H1435.18C1442.99 306.4 1449.77 309.284 1455.54 315.053C1461.31 320.822 1464.2 327.608 1464.2 335.413V353.737C1464.2 361.542 1461.31 368.328 1455.54 374.097C1449.77 379.866 1442.99 382.75 1435.18 382.75H1427.04Z" fill="#4A4A4A"/>
<path d="M73.7866 329.305L73.1091 330.041L73.1187 330.049L73.7866 329.305ZM168.97 323.197L168.168 322.6L168.159 322.611L168.97 323.197ZM73.7866 171.515L73.1187 170.771L73.1092 170.779L73.7866 171.515ZM43.7556 375.624L44.438 376.355L44.4506 376.343L44.4628 376.331L43.7556 375.624ZM8.12564 375.624L7.39459 376.306L7.41812 376.332L7.44333 376.355L8.12564 375.624ZM8.63464 8.63499L7.9507 7.90546L7.93894 7.91648L7.92754 7.92789L8.63464 8.63499ZM46.8096 8.63499L46.1025 9.3421L46.1025 9.3421L46.8096 8.63499ZM55.9716 145.556L56.6788 146.263L56.6843 146.258L55.9716 145.556ZM210.708 149.119L209.928 149.745L209.933 149.752L210.708 149.119ZM209.69 350.683L208.917 350.048L208.912 350.054L209.69 350.683ZM90.5837 379.696L90.1566 380.6L90.167 380.605L90.1775 380.61L90.5837 379.696ZM53.4266 350.174L54.169 349.504L54.1519 349.485L54.1338 349.467L53.4266 350.174ZM51.8996 357.809L52.8984 357.859L52.8996 357.834V357.809H51.8996ZM54.4446 212.235H53.4446V288.585H54.4446H55.4446V212.235H54.4446ZM54.4446 288.585H53.4446C53.4446 304.177 60.0424 318.005 73.1092 330.041L73.7866 329.305L74.4641 328.569C61.7416 316.851 55.4446 303.533 55.4446 288.585H54.4446ZM73.7866 329.305L73.1187 330.049C86.5385 342.093 102.387 348.12 120.615 348.12V347.12V346.12C102.873 346.12 87.5028 340.271 74.4546 328.561L73.7866 329.305ZM120.615 347.12V348.12C141.615 348.12 158.043 340.007 169.78 323.783L168.97 323.197L168.159 322.611C156.821 338.284 141.013 346.12 120.615 346.12V347.12ZM168.97 323.197L169.772 323.794C181.836 307.594 187.785 283.075 187.785 250.41H186.785H185.785C185.785 282.897 179.857 306.903 168.168 322.6L168.97 323.197ZM186.785 250.41H187.785C187.785 218.09 182.262 193.674 171.067 177.313C159.826 160.883 142.952 152.7 120.615 152.7V153.7V154.7C142.391 154.7 158.601 162.635 169.417 178.442C180.279 194.318 185.785 218.256 185.785 250.41H186.785ZM120.615 153.7V152.7C102.387 152.7 86.5385 158.727 73.1187 170.771L73.7866 171.515L74.4546 172.259C87.5028 160.549 102.873 154.7 120.615 154.7V153.7ZM73.7866 171.515L73.1092 170.779C60.0424 182.815 53.4446 196.643 53.4446 212.235H54.4446H55.4446C55.4446 197.287 61.7416 183.969 74.4641 172.251L73.7866 171.515ZM43.7556 375.624L43.0733 374.893C38.1632 379.476 32.4668 381.75 25.9406 381.75V382.75V383.75C32.9878 383.75 39.1681 381.274 44.438 376.355L43.7556 375.624ZM25.9406 382.75V381.75C19.4144 381.75 13.7181 379.476 8.80796 374.893L8.12564 375.624L7.44333 376.355C12.7132 381.274 18.8935 383.75 25.9406 383.75V382.75ZM8.12564 375.624L8.8567 374.942C4.2739 370.032 1.99964 364.335 1.99964 357.809H0.999644H-0.000355795C-0.000355795 364.856 2.47606 371.036 7.39459 376.306L8.12564 375.624ZM0.999644 357.809H1.99964V27.468H0.999644H-0.000355795V357.809H0.999644ZM0.999644 27.468H1.99964C1.99964 20.2569 4.44691 14.2369 9.34175 9.3421L8.63464 8.63499L7.92754 7.92789C2.64238 13.213 -0.000355795 19.7484 -0.000355795 27.468H0.999644ZM8.63464 8.63499L9.31859 9.36453C14.5619 4.44888 20.7645 1.99997 27.9766 1.99997V0.99997V-3.03388e-05C20.2581 -3.03388e-05 13.566 2.64108 7.9507 7.90546L8.63464 8.63499ZM27.9766 0.99997V1.99997C35.1877 1.99997 41.2077 4.44725 46.1025 9.3421L46.8096 8.63499L47.5168 7.92789C42.2316 2.64271 35.6962 -3.03388e-05 27.9766 -3.03388e-05V0.99997ZM46.8096 8.63499L46.1025 9.3421C50.9974 14.2369 53.4446 20.2569 53.4446 27.468H54.4446H55.4446C55.4446 19.7484 52.8019 13.213 47.5168 7.92789L46.8096 8.63499ZM54.4446 27.468H53.4446V145.556H54.4446H55.4446V27.468H54.4446ZM54.4446 145.556H53.4446C53.4446 145.88 53.5263 146.306 53.8648 146.645C54.2033 146.983 54.6298 147.065 54.9536 147.065V146.065V145.065C54.9381 145.065 55.1102 145.062 55.279 145.231C55.4478 145.399 55.4446 145.572 55.4446 145.556H54.4446ZM54.9536 146.065V147.065C55.6517 147.065 56.2304 146.711 56.6787 146.263L55.9716 145.556L55.2645 144.849C55.1517 144.962 55.0674 145.017 55.0154 145.043C54.9904 145.056 54.974 145.061 54.9656 145.063C54.9577 145.065 54.9542 145.065 54.9536 145.065V146.065ZM55.9716 145.556L56.6843 146.258C77.8762 124.729 103.41 113.98 133.34 113.98V112.98V111.98C102.868 111.98 76.823 122.948 55.259 144.854L55.9716 145.556ZM133.34 112.98V113.98C165.288 113.98 190.785 125.9 209.928 149.745L210.708 149.119L211.487 148.493C191.946 124.152 165.864 111.98 133.34 111.98V112.98ZM210.708 149.119L209.933 149.752C229.42 173.607 239.23 207.116 239.23 250.41H240.23H241.23C241.23 206.835 231.358 172.817 211.482 148.486L210.708 149.119ZM240.23 250.41H239.23C239.23 292.329 229.09 325.505 208.917 350.048L209.69 350.683L210.462 351.318C231.01 326.318 241.23 292.646 241.23 250.41H240.23ZM209.69 350.683L208.912 350.054C189.074 374.599 163.906 386.84 133.34 386.84V387.84V388.84C164.532 388.84 190.264 376.309 210.467 351.312L209.69 350.683ZM133.34 387.84V386.84C117.162 386.84 103.053 384.144 90.9898 378.782L90.5837 379.696L90.1775 380.61C102.546 386.107 116.942 388.84 133.34 388.84V387.84ZM90.5837 379.696L91.0107 378.792C78.9509 373.097 66.6678 363.354 54.169 349.504L53.4266 350.174L52.6843 350.844C65.2962 364.819 77.7844 374.758 90.1566 380.6L90.5837 379.696ZM53.4266 350.174L54.1338 349.467C53.6854 349.019 53.1067 348.665 52.4086 348.665V349.665V350.665C52.4092 350.665 52.4126 350.665 52.4206 350.667C52.429 350.669 52.4454 350.674 52.4704 350.687C52.5224 350.713 52.6067 350.768 52.7195 350.881L53.4266 350.174ZM52.4086 349.665V348.665C52.0848 348.665 51.6583 348.747 51.3198 349.085C50.9813 349.424 50.8996 349.85 50.8996 350.174H51.8996H52.8996C52.8996 350.158 52.9028 350.331 52.734 350.499C52.5652 350.668 52.3931 350.665 52.4086 350.665V349.665ZM51.8996 350.174H50.8996V357.809H51.8996H52.8996V350.174H51.8996ZM51.8996 357.809L50.9009 357.759C50.5747 364.282 47.9746 369.991 43.0485 374.917L43.7556 375.624L44.4628 376.331C49.7167 371.077 52.5459 364.909 52.8984 357.859L51.8996 357.809ZM250.342 374.606L251.049 373.899L251.049 373.899L250.342 374.606ZM249.833 125.705L250.54 126.412L250.54 126.412L249.833 125.705ZM287.499 125.705L286.792 126.412L286.803 126.424L286.815 126.435L287.499 125.705ZM297.17 168.461L296.363 167.87L296.17 168.134V168.461H297.17ZM337.89 134.358L338.351 135.245L338.358 135.242L338.365 135.238L337.89 134.358ZM393.371 118.579L393.316 117.58L393.303 117.581L393.371 118.579ZM408.641 124.178L407.934 124.885L407.948 124.899L407.963 124.913L408.641 124.178ZM408.641 155.227L407.934 154.52L407.934 154.52L408.641 155.227ZM393.371 161.844L393.413 162.843L393.427 162.842L393.371 161.844ZM321.093 187.294L321.8 188.001L321.8 188.001L321.093 187.294ZM290.044 374.606L289.337 373.899C284.099 379.137 277.737 381.75 270.193 381.75V382.75V383.75C278.258 383.75 285.131 380.933 290.751 375.313L290.044 374.606ZM270.193 382.75V381.75C262.649 381.75 256.288 379.137 251.049 373.899L250.342 374.606L249.635 375.313C255.255 380.933 262.128 383.75 270.193 383.75V382.75ZM250.342 374.606L251.049 373.899C245.811 368.661 243.198 362.299 243.198 354.755H242.198H241.198C241.198 362.82 244.015 369.693 249.635 375.313L250.342 374.606ZM242.198 354.755H243.198V144.538H242.198H241.198V354.755H242.198ZM242.198 144.538H243.198C243.198 137.327 245.645 131.307 250.54 126.412L249.833 125.705L249.126 124.998C243.841 130.283 241.198 136.818 241.198 144.538H242.198ZM249.833 125.705L250.54 126.412C255.435 121.517 261.455 119.07 268.666 119.07V118.07V117.07C260.946 117.07 254.411 119.713 249.126 124.998L249.833 125.705ZM268.666 118.07V119.07C275.877 119.07 281.897 121.517 286.792 126.412L287.499 125.705L288.206 124.998C282.921 119.713 276.386 117.07 268.666 117.07V118.07ZM287.499 125.705L286.815 126.435C292.042 131.335 294.643 137.348 294.643 144.538H295.643H296.643C296.643 136.797 293.815 130.255 288.183 124.975L287.499 125.705ZM295.643 144.538H294.643V168.461H295.643H296.643V144.538H295.643ZM295.643 168.461H294.643C294.643 168.785 294.725 169.211 295.063 169.55C295.402 169.888 295.828 169.97 296.152 169.97V168.97V167.97C296.137 167.97 296.309 167.967 296.477 168.136C296.646 168.304 296.643 168.477 296.643 168.461H295.643ZM296.152 168.97V169.97C296.542 169.97 296.984 169.926 297.363 169.737C297.566 169.635 297.779 169.478 297.938 169.238C298.102 168.993 298.17 168.721 298.17 168.461H297.17H296.17C296.17 168.371 296.195 168.247 296.274 168.129C296.349 168.017 296.435 167.965 296.468 167.948C296.498 167.933 296.495 167.941 296.433 167.952C296.374 167.962 296.283 167.97 296.152 167.97V168.97ZM297.17 168.461L297.977 169.051C308.057 155.276 321.506 144.005 338.351 135.245L337.89 134.358L337.429 133.471C320.341 142.357 306.643 153.821 296.363 167.87L297.17 168.461ZM337.89 134.358L338.365 135.238C355.201 126.147 373.555 120.925 393.439 119.577L393.371 118.579L393.303 117.581C373.146 118.948 354.513 124.245 337.415 133.478L337.89 134.358ZM393.371 118.579L393.427 119.577C399.27 119.253 404.077 121.028 407.934 124.885L408.641 124.178L409.348 123.471C405.061 119.184 399.688 117.227 393.316 117.581L393.371 118.579ZM408.641 124.178L407.963 124.913C412.165 128.792 414.258 133.614 414.258 139.448H415.258H416.258C416.258 133.066 413.94 127.708 409.319 123.443L408.641 124.178ZM415.258 139.448H414.258C414.258 145.284 412.162 150.292 407.934 154.52L408.641 155.227L409.348 155.934C413.943 151.34 416.258 145.827 416.258 139.448H415.258ZM408.641 155.227L407.934 154.52C404.047 158.406 399.195 160.519 393.316 160.846L393.371 161.844L393.427 162.842C399.763 162.49 405.091 160.192 409.348 155.934L408.641 155.227ZM393.371 161.844L393.329 160.845C360.62 162.208 336.241 170.732 320.386 186.587L321.093 187.294L321.8 188.001C337.164 172.638 360.97 164.195 393.413 162.843L393.371 161.844ZM321.093 187.294L320.386 186.587C304.864 202.109 297.188 225.141 297.188 255.5H298.188H299.188C299.188 225.457 306.782 203.019 321.8 188.001L321.093 187.294ZM298.188 255.5H297.188V354.755H298.188H299.188V255.5H298.188ZM298.188 354.755H297.188C297.188 362.299 294.575 368.661 289.337 373.899L290.044 374.606L290.751 375.313C296.371 369.693 299.188 362.82 299.188 354.755H298.188ZM449.023 221.397L449.999 221.614L450.012 221.558L450.018 221.5L449.023 221.397ZM571.183 221.397H572.183V221.375L572.182 221.353L571.183 221.397ZM428.663 353.228L427.951 353.93L427.956 353.935L428.663 353.228ZM425.1 147.592L424.356 146.924L424.35 146.93L425.1 147.592ZM623.61 237.176L622.61 237.205L622.611 237.218L623.61 237.176ZM614.957 257.536L615.621 258.283L615.621 258.283L614.957 257.536ZM448.514 269.752H447.514V269.791L447.517 269.83L448.514 269.752ZM584.926 339.485L584.61 338.536L584.61 338.536L584.926 339.485ZM599.178 341.521L598.609 342.343L598.609 342.343L599.178 341.521ZM599.687 371.552L598.906 370.927L598.906 370.927L599.687 371.552ZM583.908 381.732L584.121 382.709L584.142 382.704L584.163 382.699L583.908 381.732ZM514.175 152.682V151.682C494.625 151.682 479.237 157.478 468.148 169.173C457.082 180.844 450.416 198.267 448.028 221.294L449.023 221.397L450.018 221.5C452.38 198.717 458.948 181.783 469.6 170.549C480.228 159.339 495.041 153.682 514.175 153.682V152.682ZM449.023 221.397L448.047 221.18C447.676 222.848 447.798 224.387 448.785 225.497C449.747 226.58 451.295 226.978 453.095 226.978V225.978V224.978C451.502 224.978 450.674 224.612 450.279 224.168C449.909 223.752 449.691 223 449.999 221.614L449.023 221.397ZM453.095 225.978V226.978H567.111V225.978V224.978H453.095V225.978ZM567.111 225.978V226.978C568.655 226.978 569.987 226.538 570.912 225.497C571.818 224.478 572.183 223.051 572.183 221.397H571.183H570.183C570.183 222.797 569.869 223.66 569.418 224.168C568.986 224.654 568.282 224.978 567.111 224.978V225.978ZM571.183 221.397L572.182 221.353C571.159 198.341 565.871 180.911 556.174 169.222C546.443 157.493 532.389 151.682 514.175 151.682V152.682V153.682C531.931 153.682 545.363 159.324 554.634 170.499C563.939 181.715 569.171 198.643 570.184 221.441L571.183 221.397ZM526.9 387.84V386.84C484.666 386.84 452.206 375.357 429.37 352.521L428.663 353.228L427.956 353.935C451.27 377.249 484.301 388.84 526.9 388.84V387.84ZM428.663 353.228L429.375 352.526C406.888 329.703 395.56 295.725 395.56 250.41H394.56H393.56C393.56 296.036 404.967 330.604 427.951 353.93L428.663 353.228ZM394.56 250.41H395.56C395.56 205.069 405.713 171.075 425.85 148.254L425.1 147.592L424.35 146.93C403.767 170.258 393.56 204.809 393.56 250.41H394.56ZM425.1 147.592L425.844 148.26C446.309 125.447 475.699 113.98 514.175 113.98V112.98V111.98C475.283 111.98 445.29 123.588 424.356 146.924L425.1 147.592ZM514.175 112.98V113.98C549.264 113.98 575.72 124.263 593.719 144.69C611.743 165.145 621.426 195.927 622.61 237.205L623.61 237.176L624.61 237.147C623.418 195.628 613.675 164.312 595.22 143.368C576.741 122.396 549.667 111.98 514.175 111.98V112.98ZM623.61 237.176L622.611 237.218C622.938 245.061 620.177 251.558 614.293 256.789L614.957 257.536L615.621 258.283C621.953 252.655 624.961 245.579 624.609 237.134L623.61 237.176ZM614.957 257.536L614.293 256.789C608.367 262.056 601.477 264.68 593.579 264.68V265.68V266.68C601.969 266.68 609.331 263.875 615.621 258.283L614.957 257.536ZM593.579 265.68V264.68H452.586V265.68V266.68H593.579V265.68ZM452.586 265.68V264.68C451.075 264.68 449.757 265.059 448.825 265.991C447.893 266.923 447.514 268.241 447.514 269.752H448.514H449.514C449.514 268.549 449.814 267.83 450.239 267.405C450.664 266.98 451.383 266.68 452.586 266.68V265.68ZM448.514 269.752L447.517 269.83C449.565 296.113 457.6 315.981 471.752 329.27C485.908 342.563 506.037 349.138 531.99 349.138V348.138V347.138C506.364 347.138 486.792 340.649 473.122 327.813C459.449 314.974 451.535 295.648 449.511 269.674L448.514 269.752ZM531.99 348.138V349.138C550.084 349.138 567.836 346.236 585.242 340.434L584.926 339.485L584.61 338.536C567.404 344.271 549.866 347.138 531.99 347.138V348.138ZM584.926 339.485L585.242 340.434C590.034 338.837 594.456 339.468 598.609 342.343L599.178 341.521L599.747 340.699C595.077 337.466 589.998 336.74 584.61 338.536L584.926 339.485ZM599.178 341.521L598.609 342.343C602.747 345.208 604.795 349.14 604.795 354.246H605.795H606.795C606.795 348.493 604.432 343.942 599.747 340.699L599.178 341.521ZM605.795 354.246H604.795C604.795 360.464 602.838 366.012 598.906 370.927L599.687 371.552L600.468 372.177C604.68 366.912 606.795 360.923 606.795 354.246H605.795ZM599.687 371.552L598.906 370.927C594.972 375.846 589.898 379.122 583.654 380.765L583.908 381.732L584.163 382.699C590.812 380.949 596.259 377.438 600.468 372.177L599.687 371.552ZM583.908 381.732L583.695 380.755C565.102 384.812 546.171 386.84 526.9 386.84V387.84V388.84C546.313 388.84 565.387 386.796 584.121 382.709L583.908 381.732ZM663.073 354.755L664.044 354.512L664.041 354.502L663.073 354.755ZM608.61 146.065L607.638 146.297L607.64 146.307L607.643 146.318L608.61 146.065ZM612.682 126.723L611.91 126.087L611.899 126.101L611.888 126.116L612.682 126.723ZM652.893 126.214L652.249 126.979L652.249 126.979L652.893 126.214ZM665.109 146.574L666.089 146.374L666.088 146.37L665.109 146.574ZM703.793 336.431H704.793V336.33L704.773 336.231L703.793 336.431ZM704.811 336.431L703.83 336.239L703.811 336.334V336.431H704.811ZM741.968 146.574L740.989 146.37L740.987 146.382L741.968 146.574ZM754.184 126.214L753.56 125.433L753.55 125.441L753.54 125.449L754.184 126.214ZM812.21 126.214L811.566 126.979L811.576 126.987L811.586 126.995L812.21 126.214ZM824.426 146.574L823.44 146.738L823.442 146.752L823.445 146.766L824.426 146.574ZM861.583 336.431H862.583V336.334L862.565 336.239L861.583 336.431ZM862.601 336.431L861.621 336.232L861.601 336.331V336.431H862.601ZM901.285 145.556L900.308 145.344L900.305 145.357L901.285 145.556ZM912.992 126.214L913.633 126.982L913.637 126.979L912.992 126.214ZM952.185 126.723L951.391 127.33L951.4 127.342L951.409 127.354L952.185 126.723ZM955.748 145.047L954.791 144.76L954.785 144.778L954.781 144.796L955.748 145.047ZM901.285 354.755L900.317 354.504L900.315 354.512L901.285 354.755ZM888.051 375.115L888.651 375.915L888.664 375.906L888.676 375.896L888.051 375.115ZM832.061 374.606L831.417 375.371L831.427 375.379L831.437 375.387L832.061 374.606ZM819.845 354.246L818.865 354.443L818.866 354.45L819.845 354.246ZM782.688 169.479H781.688V169.579L781.708 169.676L782.688 169.479ZM781.67 169.479L782.651 169.676L782.67 169.579V169.479H781.67ZM744.513 354.246L743.533 354.049L743.53 354.065L743.527 354.082L744.513 354.246ZM732.297 374.606L731.673 373.825L731.663 373.833L731.653 373.841L732.297 374.606ZM676.307 375.115L675.683 375.896L675.704 375.913L675.726 375.929L676.307 375.115ZM663.073 354.755L664.041 354.502L609.578 145.812L608.61 146.065L607.643 146.318L662.106 355.008L663.073 354.755ZM608.61 146.065L609.583 145.833C607.955 138.997 609.25 132.858 613.477 127.33L612.682 126.723L611.888 126.116C607.292 132.125 605.872 138.881 607.638 146.297L608.61 146.065ZM612.682 126.723L613.454 127.359C618.026 121.808 623.687 119.07 630.497 119.07V118.07V117.07C623.056 117.07 616.84 120.101 611.91 126.087L612.682 126.723ZM630.497 118.07V119.07C638.747 119.07 645.984 121.702 652.249 126.979L652.893 126.214L653.538 125.449C646.909 119.867 639.215 117.07 630.497 117.07V118.07ZM652.893 126.214L652.249 126.979C658.528 132.266 662.48 138.856 664.13 146.778L665.109 146.574L666.088 146.37C664.345 138.004 660.154 131.021 653.538 125.449L652.893 126.214ZM665.109 146.574L664.13 146.774L702.814 336.631L703.793 336.431L704.773 336.231L666.089 146.374L665.109 146.574ZM703.793 336.431H702.793C702.793 336.755 702.875 337.181 703.214 337.52C703.552 337.858 703.979 337.94 704.302 337.94V336.94V335.94C704.287 335.94 704.459 335.937 704.628 336.106C704.797 336.274 704.793 336.447 704.793 336.431H703.793ZM704.302 336.94V337.94C704.626 337.94 705.053 337.858 705.391 337.52C705.73 337.181 705.811 336.755 705.811 336.431H704.811H703.811C703.811 336.447 703.808 336.274 703.977 336.106C704.146 335.937 704.318 335.94 704.302 335.94V336.94ZM704.811 336.431L705.793 336.623L742.95 146.766L741.968 146.574L740.987 146.382L703.83 336.239L704.811 336.431ZM741.968 146.574L742.947 146.778C744.598 138.856 748.55 132.266 754.829 126.979L754.184 126.214L753.54 125.449C746.924 131.021 742.732 138.004 740.989 146.37L741.968 146.574ZM754.184 126.214L754.809 126.995C761.431 121.697 768.679 119.07 776.58 119.07V118.07V117.07C768.193 117.07 760.511 119.872 753.56 125.433L754.184 126.214ZM776.58 118.07V119.07H789.814V118.07V117.07H776.58V118.07ZM789.814 118.07V119.07C798.064 119.07 805.301 121.702 811.566 126.979L812.21 126.214L812.855 125.449C806.226 119.867 798.532 117.07 789.814 117.07V118.07ZM812.21 126.214L811.586 126.995C818.191 132.279 822.125 138.851 823.44 146.738L824.426 146.574L825.413 146.41C824.013 138.009 819.803 131.007 812.835 125.433L812.21 126.214ZM824.426 146.574L823.445 146.766L860.602 336.623L861.583 336.431L862.565 336.239L825.408 146.382L824.426 146.574ZM861.583 336.431H860.583C860.583 336.755 860.665 337.181 861.004 337.52C861.342 337.858 861.769 337.94 862.092 337.94V336.94V335.94C862.077 335.94 862.249 335.937 862.418 336.106C862.587 336.274 862.583 336.447 862.583 336.431H861.583ZM862.092 336.94V337.94C862.416 337.94 862.843 337.858 863.181 337.52C863.52 337.181 863.601 336.755 863.601 336.431H862.601H861.601C861.601 336.447 861.598 336.274 861.767 336.106C861.936 335.937 862.108 335.94 862.092 335.94V336.94ZM862.601 336.431L863.582 336.63L902.265 145.755L901.285 145.556L900.305 145.357L861.621 336.232L862.601 336.431ZM901.285 145.556L902.263 145.768C903.912 138.18 907.697 131.929 913.633 126.982L912.992 126.214L912.352 125.446C906.072 130.679 902.052 137.322 900.308 145.344L901.285 145.556ZM912.992 126.214L913.637 126.979C919.91 121.696 926.98 119.07 934.879 119.07V118.07V117.07C926.491 117.07 918.969 119.874 912.348 125.449L912.992 126.214ZM934.879 118.07V119.07C941.687 119.07 947.165 121.804 951.391 127.33L952.185 126.723L952.98 126.116C948.383 120.105 942.324 117.07 934.879 117.07V118.07ZM952.185 126.723L951.409 127.354C955.609 132.522 956.733 138.285 954.791 144.76L955.748 145.047L956.706 145.334C958.836 138.235 957.585 131.783 952.962 126.092L952.185 126.723ZM955.748 145.047L954.781 144.796L900.318 354.504L901.285 354.755L902.253 355.006L956.716 145.298L955.748 145.047ZM901.285 354.755L900.315 354.512C898.334 362.436 894.049 369.036 887.427 374.334L888.051 375.115L888.676 375.896C895.627 370.335 900.164 363.362 902.256 354.998L901.285 354.755ZM888.051 375.115L887.451 374.315C880.838 379.275 873.413 381.75 865.146 381.75V382.75V383.75C873.846 383.75 881.692 381.135 888.651 375.915L888.051 375.115ZM865.146 382.75V381.75H854.457V382.75V383.75H865.146V382.75ZM854.457 382.75V381.75C846.556 381.75 839.308 379.123 832.686 373.825L832.061 374.606L831.437 375.387C838.388 380.948 846.071 383.75 854.457 383.75V382.75ZM832.061 374.606L832.706 373.841C826.427 368.554 822.475 361.964 820.824 354.042L819.845 354.246L818.866 354.45C820.609 362.816 824.801 369.799 831.417 375.371L832.061 374.606ZM819.845 354.246L820.826 354.049L783.669 169.282L782.688 169.479L781.708 169.676L818.865 354.443L819.845 354.246ZM782.688 169.479H783.688C783.688 169.155 783.607 168.729 783.268 168.39C782.93 168.052 782.503 167.97 782.179 167.97V168.97V169.97C782.195 169.97 782.023 169.973 781.854 169.804C781.685 169.635 781.688 169.463 781.688 169.479H782.688ZM782.179 168.97V167.97C781.856 167.97 781.429 168.052 781.091 168.39C780.752 168.729 780.67 169.155 780.67 169.479H781.67H782.67C782.67 169.463 782.674 169.636 782.505 169.804C782.336 169.973 782.164 169.97 782.179 169.97V168.97ZM781.67 169.479L780.69 169.282L743.533 354.049L744.513 354.246L745.494 354.443L782.651 169.676L781.67 169.479ZM744.513 354.246L743.527 354.082C742.212 361.969 738.278 368.541 731.673 373.825L732.297 374.606L732.922 375.387C739.89 369.812 744.1 362.811 745.5 354.41L744.513 354.246ZM732.297 374.606L731.653 373.841C725.388 379.118 718.151 381.75 709.901 381.75V382.75V383.75C718.619 383.75 726.313 380.953 732.942 375.371L732.297 374.606ZM709.901 382.75V381.75H699.212V382.75V383.75H709.901V382.75ZM699.212 382.75V381.75C691.293 381.75 683.859 379.28 676.889 374.301L676.307 375.115L675.726 375.929C683.008 381.13 690.844 383.75 699.212 383.75V382.75ZM676.307 375.115L676.932 374.334C670.31 369.036 666.024 362.436 664.044 354.512L663.073 354.755L662.103 354.998C664.194 363.362 668.732 370.335 675.683 375.896L676.307 375.115ZM966.33 353.228L965.602 353.914L965.607 353.919L966.33 353.228ZM965.312 148.61L966.051 149.284L966.055 149.279L965.312 148.61ZM1106.81 116.543L1106.97 115.555L1106.96 115.553L1106.81 116.543ZM1122.59 125.705L1121.81 126.33L1121.82 126.345L1121.84 126.36L1122.59 125.705ZM1122.08 157.263L1121.5 156.449L1121.49 156.46L1121.47 156.47L1122.08 157.263ZM1106.81 160.317L1107.04 159.344L1107.03 159.341L1106.81 160.317ZM1006.54 177.623L1005.75 177.009L1005.74 177.02L1006.54 177.623ZM1007.56 323.706L1006.79 324.339L1006.79 324.35L1007.56 323.706ZM1110.38 339.485L1110.67 340.442L1110.68 340.439L1110.38 339.485ZM1125.14 342.03L1124.53 342.823L1124.55 342.838L1124.57 342.852L1125.14 342.03ZM1125.14 373.079L1125.91 373.71L1125.91 373.71L1125.14 373.079ZM1108.85 383.259L1109.03 384.242L1109.05 384.24L1109.06 384.238L1108.85 383.259ZM1060.5 387.84V386.84C1019.97 386.84 988.872 375.363 967.053 352.537L966.33 353.228L965.607 353.919C987.901 377.242 1019.58 388.84 1060.5 388.84V387.84ZM966.33 353.228L967.058 352.542C945.236 329.377 934.245 295.39 934.245 250.41H933.245H932.245C932.245 295.693 943.311 330.251 965.602 353.914L966.33 353.228ZM933.245 250.41H934.245C934.245 206.106 944.898 172.451 966.051 149.284L965.312 148.61L964.574 147.936C942.97 171.597 932.245 205.808 932.245 250.41H933.245ZM965.312 148.61L966.055 149.279C987.204 125.78 1016.94 113.98 1055.41 113.98V112.98V111.98C1016.5 111.98 986.176 123.933 964.569 147.941L965.312 148.61ZM1055.41 112.98V113.98C1073.35 113.98 1090.43 115.165 1106.67 117.533L1106.81 116.543L1106.96 115.553C1090.62 113.171 1073.43 111.98 1055.41 111.98V112.98ZM1106.81 116.543L1106.66 117.531C1112.86 118.51 1117.9 121.435 1121.81 126.33L1122.59 125.705L1123.37 125.08C1119.15 119.795 1113.66 116.612 1106.97 115.555L1106.81 116.543ZM1122.59 125.705L1121.84 126.36C1126.09 131.267 1128.21 136.972 1128.21 143.52H1129.21H1130.21C1130.21 136.495 1127.92 130.323 1123.35 125.05L1122.59 125.705ZM1129.21 143.52H1128.21C1128.21 148.961 1125.99 153.241 1121.5 156.449L1122.08 157.263L1122.67 158.077C1127.67 154.498 1130.21 149.616 1130.21 143.52H1129.21ZM1122.08 157.263L1121.47 156.47C1117.32 159.667 1112.54 160.637 1107.04 159.344L1106.81 160.317L1106.59 161.29C1112.62 162.711 1118.03 161.645 1122.69 158.056L1122.08 157.263ZM1106.81 160.317L1107.03 159.341C1090.34 155.595 1074.49 153.718 1059.48 153.718V154.718V155.718C1074.32 155.718 1090.03 157.574 1106.6 161.293L1106.81 160.317ZM1059.48 154.718V153.718C1035.83 153.718 1017.86 161.444 1005.75 177.009L1006.54 177.623L1007.33 178.237C1018.98 163.262 1036.3 155.718 1059.48 155.718V154.718ZM1006.54 177.623L1005.74 177.02C994.009 192.551 988.235 217.081 988.235 250.41H989.235H990.235C990.235 217.229 995.999 193.235 1007.34 178.226L1006.54 177.623ZM989.235 250.41H988.235C988.235 284.417 994.347 309.138 1006.79 324.339L1007.56 323.706L1008.33 323.073C996.339 308.413 990.235 284.27 990.235 250.41H989.235ZM1007.56 323.706L1006.79 324.35C1019.59 339.571 1038.92 347.102 1064.57 347.102V346.102V345.102C1039.32 345.102 1020.64 337.703 1008.32 323.062L1007.56 323.706ZM1064.57 346.102V347.102C1080.61 347.102 1095.98 344.883 1110.67 340.442L1110.38 339.485L1110.09 338.528C1095.59 342.909 1080.42 345.102 1064.57 345.102V346.102ZM1110.38 339.485L1110.68 340.439C1115.8 338.837 1120.38 339.633 1124.53 342.823L1125.14 342.03L1125.75 341.237C1121.07 337.64 1115.81 336.739 1110.08 338.531L1110.38 339.485ZM1125.14 342.03L1124.57 342.852C1128.71 345.717 1130.76 349.649 1130.76 354.755H1131.76H1132.76C1132.76 349.002 1130.39 344.451 1125.71 341.208L1125.14 342.03ZM1131.76 354.755H1130.76C1130.76 361.304 1128.63 367.191 1124.36 372.448L1125.14 373.079L1125.91 373.71C1130.47 368.108 1132.76 361.779 1132.76 354.755H1131.76ZM1125.14 373.079L1124.36 372.448C1120.09 377.712 1114.85 380.973 1108.64 382.28L1108.85 383.259L1109.06 384.238C1115.74 382.83 1121.37 379.305 1125.91 373.71L1125.14 373.079ZM1108.85 383.259L1108.67 382.276C1092.44 385.319 1076.38 386.84 1060.5 386.84V387.84V388.84C1076.51 388.84 1092.69 387.307 1109.03 384.242L1108.85 383.259ZM1194.43 375.115L1193.75 374.385L1193.74 374.396L1193.73 374.408L1194.43 375.115ZM1156.77 8.63499L1157.47 9.3421L1157.47 9.3421L1156.77 8.63499ZM1194.43 8.63499L1193.73 9.3421L1193.74 9.3535L1193.75 9.36453L1194.43 8.63499ZM1204.1 150.646L1204.81 151.353L1204.82 151.343L1204.83 151.333L1204.1 150.646ZM1351.71 138.939L1350.94 139.575L1350.95 139.582L1351.71 138.939ZM1365.46 375.115L1366.16 375.822L1366.16 375.822L1365.46 375.115ZM1328.81 375.115L1328.1 375.822L1328.1 375.822L1328.81 375.115ZM1309.98 172.024L1309.16 172.603L1309.16 172.603L1309.98 172.024ZM1223.96 178.641L1224.67 179.34L1224.68 179.331L1223.96 178.641ZM1194.43 375.115L1193.73 374.408C1188.83 379.303 1182.81 381.75 1175.6 381.75V382.75V383.75C1183.32 383.75 1189.86 381.107 1195.14 375.822L1194.43 375.115ZM1175.6 382.75V381.75C1168.39 381.75 1162.37 379.303 1157.47 374.408L1156.77 375.115L1156.06 375.822C1161.35 381.107 1167.88 383.75 1175.6 383.75V382.75ZM1156.77 375.115L1157.47 374.408C1152.58 369.513 1150.13 363.493 1150.13 356.282H1149.13H1148.13C1148.13 364.002 1150.78 370.537 1156.06 375.822L1156.77 375.115ZM1149.13 356.282H1150.13V27.468H1149.13H1148.13V356.282H1149.13ZM1149.13 27.468H1150.13C1150.13 20.2569 1152.58 14.2369 1157.47 9.3421L1156.77 8.63499L1156.06 7.92789C1150.78 13.213 1148.13 19.7484 1148.13 27.468H1149.13ZM1156.77 8.63499L1157.47 9.3421C1162.37 4.44725 1168.39 1.99997 1175.6 1.99997V0.99997V-3.03388e-05C1167.88 -3.03388e-05 1161.35 2.64271 1156.06 7.92789L1156.77 8.63499ZM1175.6 0.99997V1.99997C1182.81 1.99997 1188.83 4.44725 1193.73 9.3421L1194.43 8.63499L1195.14 7.92789C1189.86 2.64271 1183.32 -3.03388e-05 1175.6 -3.03388e-05V0.99997ZM1194.43 8.63499L1193.75 9.36453C1198.98 14.2648 1201.58 20.2781 1201.58 27.468H1202.58H1203.58C1203.58 19.7272 1200.75 13.1852 1195.12 7.90546L1194.43 8.63499ZM1202.58 27.468H1201.58V150.646H1202.58H1203.58V27.468H1202.58ZM1202.58 150.646H1201.58C1201.58 150.97 1201.66 151.396 1202 151.735C1202.34 152.073 1202.76 152.155 1203.09 152.155V151.155V150.155C1203.07 150.155 1203.24 150.152 1203.41 150.321C1203.58 150.489 1203.58 150.662 1203.58 150.646H1202.58ZM1203.09 151.155V152.155C1203.78 152.155 1204.36 151.801 1204.81 151.353L1204.1 150.646L1203.4 149.939C1203.28 150.052 1203.2 150.107 1203.15 150.133C1203.12 150.146 1203.11 150.151 1203.1 150.153C1203.09 150.155 1203.09 150.155 1203.09 150.155V151.155ZM1204.1 150.646L1204.83 151.333C1228.43 126.385 1254.82 113.98 1284.02 113.98V112.98V111.98C1254.17 111.98 1227.29 124.686 1203.38 149.959L1204.1 150.646ZM1284.02 112.98V113.98C1314.72 113.98 1336.95 122.578 1350.94 139.575L1351.71 138.939L1352.49 138.303C1337.98 120.688 1315.08 111.98 1284.02 111.98V112.98ZM1351.71 138.939L1350.95 139.582C1364.97 156.271 1372.09 184.643 1372.09 224.96H1373.09H1374.09C1374.09 184.516 1366.97 155.541 1352.48 138.296L1351.71 138.939ZM1373.09 224.96H1372.09V356.791H1373.09H1374.09V224.96H1373.09ZM1373.09 356.791H1372.09C1372.09 363.649 1369.66 369.503 1364.75 374.408L1365.46 375.115L1366.16 375.822C1371.44 370.547 1374.09 364.185 1374.09 356.791H1373.09ZM1365.46 375.115L1364.75 374.408C1359.85 379.312 1353.99 381.75 1347.13 381.75V382.75V383.75C1354.53 383.75 1360.89 381.098 1366.16 375.822L1365.46 375.115ZM1347.13 382.75V381.75C1340.28 381.75 1334.42 379.312 1329.52 374.408L1328.81 375.115L1328.1 375.822C1333.38 381.098 1339.74 383.75 1347.13 383.75V382.75ZM1328.81 375.115L1329.52 374.408C1324.61 369.503 1322.17 363.649 1322.17 356.791H1321.17H1320.17C1320.17 364.185 1322.83 370.547 1328.1 375.822L1328.81 375.115ZM1321.17 356.791H1322.17V235.14H1321.17H1320.17V356.791H1321.17ZM1321.17 235.14H1322.17C1322.17 219.327 1321.24 206.115 1319.36 195.518C1317.48 184.937 1314.65 176.88 1310.79 171.445L1309.98 172.024L1309.16 172.603C1312.77 177.688 1315.54 185.41 1317.39 195.867C1319.24 206.309 1320.17 219.395 1320.17 235.14H1321.17ZM1309.98 172.024L1310.79 171.445C1303.05 160.54 1288.91 155.245 1268.75 155.245V156.245V157.245C1288.63 157.245 1301.97 162.469 1309.16 172.603L1309.98 172.024ZM1268.75 156.245V155.245C1252.79 155.245 1237.61 162.889 1223.23 177.951L1223.96 178.641L1224.68 179.331C1238.81 164.532 1253.49 157.245 1268.75 157.245V156.245ZM1223.96 178.641L1223.24 177.942C1208.85 192.671 1201.58 208.349 1201.58 224.96H1202.58H1203.58C1203.58 208.995 1210.55 193.794 1224.67 179.34L1223.96 178.641ZM1202.58 224.96H1201.58V356.282H1202.58H1203.58V224.96H1202.58ZM1202.58 356.282H1201.58C1201.58 363.472 1198.98 369.485 1193.75 374.385L1194.43 375.115L1195.12 375.845C1200.75 370.565 1203.58 364.023 1203.58 356.282H1202.58ZM1406.68 315.053L1407.39 315.76L1407.39 315.76L1406.68 315.053ZM1455.54 315.053L1454.84 315.76L1454.84 315.76L1455.54 315.053ZM1455.54 374.097L1456.25 374.804L1455.54 374.097ZM1427.04 382.75V381.75C1419.51 381.75 1412.98 378.98 1407.39 373.39L1406.68 374.097L1405.97 374.804C1411.92 380.751 1418.96 383.75 1427.04 383.75V382.75ZM1406.68 374.097L1407.39 373.39C1401.8 367.799 1399.03 361.263 1399.03 353.737H1398.03H1397.03C1397.03 361.82 1400.02 368.857 1405.97 374.804L1406.68 374.097ZM1398.03 353.737H1399.03V335.413H1398.03H1397.03V353.737H1398.03ZM1398.03 335.413H1399.03C1399.03 327.887 1401.8 321.351 1407.39 315.76L1406.68 315.053L1405.97 314.346C1400.02 320.293 1397.03 327.33 1397.03 335.413H1398.03ZM1406.68 315.053L1407.39 315.76C1412.98 310.17 1419.51 307.4 1427.04 307.4V306.4V305.4C1418.96 305.4 1411.92 308.399 1405.97 314.346L1406.68 315.053ZM1427.04 306.4V307.4H1435.18V306.4V305.4H1427.04V306.4ZM1435.18 306.4V307.4C1442.71 307.4 1449.24 310.17 1454.84 315.76L1455.54 315.053L1456.25 314.346C1450.3 308.399 1443.27 305.4 1435.18 305.4V306.4ZM1455.54 315.053L1454.84 315.76C1460.43 321.351 1463.2 327.887 1463.2 335.413H1464.2H1465.2C1465.2 327.33 1462.2 320.293 1456.25 314.346L1455.54 315.053ZM1464.2 335.413H1463.2V353.737H1464.2H1465.2V335.413H1464.2ZM1464.2 353.737H1463.2C1463.2 361.263 1460.43 367.799 1454.84 373.39L1455.54 374.097L1456.25 374.804C1462.2 368.857 1465.2 361.82 1465.2 353.737H1464.2ZM1455.54 374.097L1454.84 373.39C1449.24 378.98 1442.71 381.75 1435.18 381.75V382.75V383.75C1443.27 383.75 1450.3 380.751 1456.25 374.804L1455.54 374.097ZM1435.18 382.75V381.75H1427.04V382.75V383.75H1435.18V382.75Z" fill="black" mask="url(#path-1-outside-1_2112_3)"/>
</svg>
